:version 1.10
:name ASF
:units
  mass 1
  length 1
  angle deg
:documentation
  ASF file generated by Kaydara
:root
  axis xyz
  order  tx ty tz rx ry rz
  position 0 0 0
  orientation 0 0 0
:bonedata
  begin
    id 1
    name RightUpLegDummy
    direction -0.718183 -0.695806 0.00816078
    length 4.904
    axis 0 0 0 xyz
  end
  begin
    id 2
    name RightUpLeg
    direction 3.53373e-006 -0.995788 0.0916898
    length 17.4976
    axis -3.49089 -0.000906625 0.000286804 xyz
    dof rx ry rz
  end
  begin
    id 3
    name RightLeg
    direction 0.00371092 -0.995096 -0.0988419
    length 16.5821
    axis 3.68512 0.0193738 -0.131023 xyz
    dof rx ry rz
  end
  begin
    id 4
    name RightFoot
    direction 0.00079151 -0.46099 0.887405
    length 3.77069
    axis 4.81691e-005 -0.120479 -0.188788 xyz
    dof rx ry rz
  end
  begin
    id 5
    name RightToes
    direction 0 0 0
    length 0
    axis 0 0 0 xyz
    dof rx ry rz
  end
  begin
    id 6
    name SpineDummy
    direction 8.3039e-015 1 4.57515e-016
    length 4.6813
    axis 0 0 0 xyz
  end
  begin
    id 7
    name Spine
    direction -3.15643e-008 0.999988 0.00495137
    length 10.1015
    axis -0.001389 0.000121418 2.40972e-006 xyz
    dof rx ry rz
  end
  begin
    id 8
    name Spine1
    direction 0 0 0
    length 0
    axis -0.001389 0.000121451 1.30017e-006 xyz
    dof rx ry rz
  end
  begin
    id 9
    name HEadDummy
    direction -1.99912e-008 0.999999 0.00127422
    length 3.43865
    axis -0.001389 0.000121451 1.30017e-006 xyz
  end
  begin
    id 10
    name HEad
    direction 0 0 0
    length 0
    axis 0 0 0 xyz
    dof rx ry rz
  end
  begin
    id 11
    name LeftShoulder1Dummy
    direction 0.998891 -0.0402509 -0.0244456
    length 3.5433
    axis -0.001389 0.000121451 1.30017e-006 xyz
  end
  begin
    id 12
    name LeftShoulder1
    direction 0.99951 -0.000327763 0.0313091
    length 4.05031
    axis -0.001389 0.000121451 1.30017e-006 xyz
    dof rx ry rz
  end
  begin
    id 13
    name LeftArm
    direction 0.998561 -0.00100056 -0.0536182
    length 10.3537
    axis -23.1894 0.134784 0.967509 xyz
    dof rx ry rz
  end
  begin
    id 14
    name LeftForeArm
    direction 0.998903 0.00866432 0.046012
    length 8.70632
    axis -9.91835 -0.06569 -0.177794 xyz
    dof rx ry rz
  end
  begin
    id 15
    name LeftHand
    direction 0 0 0
    length 0
    axis 0 0 0 xyz
    dof rx ry rz
  end
  begin
    id 16
    name RightShoulderDummy
    direction -0.998891 -0.0402509 -0.0244414
    length 3.5433
    axis -0.001389 0.000121451 1.30017e-006 xyz
  end
  begin
    id 17
    name RightShoulder
    direction -0.99951 -0.000327807 0.0313133
    length 4.05031
    axis 0.215806 0.000203643 -0.0068026 xyz
    dof rx ry rz
  end
  begin
    id 18
    name RightArm
    direction -0.998573 -0.000999564 -0.053403
    length 10.3947
    axis -23.2009 -0.134239 -0.964101 xyz
    dof rx ry rz
  end
  begin
    id 19
    name RightForeArm
    direction -0.998898 0.00868028 0.0461306
    length 8.68355
    axis -9.92322 0.0658061 0.178868 xyz
    dof rx ry rz
  end
  begin
    id 20
    name RightHand
    direction 0 0 0
    length 0
    axis 0 0 0 xyz
    dof rx ry rz
  end
  begin
    id 21
    name LeftUpLegDummy
    direction 0.718183 -0.695806 0.00816078
    length 4.904
    axis 0 0 0 xyz
  end
  begin
    id 22
    name LeftUpLeg
    direction -6.81752e-006 -0.995793 0.0916337
    length 17.4976
    axis -3.48766 0.00143442 -0.000524262 xyz
    dof rx ry rz
  end
  begin
    id 23
    name LeftLeg
    direction -0.00601358 -0.995091 -0.0987824
    length 16.5821
    axis 3.68178 -0.00654042 -0.000285133 xyz
    dof rx ry rz
  end
  begin
    id 24
    name LeftFoot
    direction -0.00417578 -0.460984 0.887399
    length 3.77069
    axis 1.87233e-006 4.66016e-005 -8.6538e-006 xyz
    dof rx ry rz
  end
  begin
    id 25
    name LeftToes
    direction 0 0 0
    length 0
    axis 0 0 0 xyz
    dof rx ry rz
  end
:hierarchy
  begin
    root RightUpLegDummy SpineDummy LeftUpLegDummy
    RightUpLegDummy RightUpLeg
    RightUpLeg RightLeg
    RightLeg RightFoot
    RightFoot RightToes
    SpineDummy Spine
    Spine Spine1
    Spine1 HEadDummy LeftShoulder1Dummy RightShoulderDummy
    HEadDummy HEad
    LeftShoulder1Dummy LeftShoulder1
    LeftShoulder1 LeftArm
    LeftArm LeftForeArm
    LeftForeArm LeftHand
    RightShoulderDummy RightShoulder
    RightShoulder RightArm
    RightArm RightForeArm
    RightForeArm RightHand
    LeftUpLegDummy LeftUpLeg
    LeftUpLeg LeftLeg
    LeftLeg LeftFoot
    LeftFoot LeftToes
  end

:SAMPLES-PER-SECOND 30
:FULLY-SPECIFIED
:DEGREES
389
root  32.6234 39.4434 9.60009 134.816 87.229 137.882
RightUpLeg  -10.229 -19.5869 -10.955
RightLeg  20.5852 -6.21061 -2.69229
RightFoot  -2.95067 -0.42967 5.58868
RightToes  0.000481921 0.542163 -0.142578
Spine  20.5627 -4.64307 -7.04708
Spine1  3.00453 -10.6999 21.3583
HEad  12.9706 15.6583 -11.2299
LeftShoulder1  4.14689 -11.5546 -21.0979
LeftArm  -22.029 -49.5736 -32.342
LeftForeArm  49.0268 -60.7498 -14.485
LeftHand  -0.25398 0.0180481 5.50724
RightShoulder  4.33048 9.77187 26.5664
RightArm  11.3005 22.2122 56.7778
RightForeArm  159.256 60.7497 161.303
RightHand  -0.978694 3.43233 -13.1683
LeftUpLeg  -11.2481 17.3353 3.80791
LeftLeg  20.4285 2.61808 1.4948
LeftFoot  -3.15163 0.248931 -3.20852
LeftToes  1.06244e-005 4.65869e-005 -8.65518e-006
390
root  32.3587 39.0498 9.60141 -178.225 81.3393 -175.51
RightUpLeg  -11.1224 -23.8596 -10.1238
RightLeg  24.3088 -7.89885 -4.11507
RightFoot  -4.82397 -0.414437 6.70496
RightToes  0.000481921 0.542163 -0.142578
Spine  24.7093 -5.97227 -12.2305
Spine1  -1.09156 -14.485 31.7014
HEad  13.7524 18.4604 -12.104
LeftShoulder1  2.39637 -9.34694 -11.3808
LeftArm  -23.9791 -63.1659 -25.4497
LeftForeArm  51.4025 -28.412 -2.48415
LeftHand  -0.25398 0.0180481 5.50724
RightShoulder  4.22405 9.73099 25.8283
RightArm  10.9039 15.8688 53.2368
RightForeArm  163.683 57.7884 163.629
RightHand  -0.582635 1.59874 -9.53012
LeftUpLeg  -15.8732 13.113 4.41498
LeftLeg  25.2325 0.657375 0.67046
LeftFoot  -4.00266 0.183612 -2.48794
LeftToes  1.06244e-005 4.65869e-005 -8.65518e-006
391
root  32.3235 38.7223 9.58249 -175.869 76.3005 -173.901
RightUpLeg  -12.0341 -27.8215 -9.66782
RightLeg  27.2552 -8.61772 -5.02097
RightFoot  -6.55981 -0.370896 7.78786
RightToes  0.000481921 0.542163 -0.142578
Spine  27.1379 -7.18441 -15.4489
Spine1  -3.73779 -17.0157 38.2828
HEad  13.9069 20.9767 -12.8178
LeftShoulder1  1.24102 -6.86018 -4.20364
LeftArm  -23.9689 -65.1047 -22.7478
LeftForeArm  56.6537 -23.4065 -2.37118
LeftHand  -0.25398 0.0180481 5.50724
RightShoulder  3.83566 8.76947 25.1378
RightArm  10.788 9.05392 49.7305
RightForeArm  171.226 54.4911 166.049
RightHand  -0.0760621 -0.730143 -1.85379
LeftUpLeg  -19.5926 10.1037 4.76134
LeftLeg  28.6637 -1.04175 -0.267131
LeftFoot  -4.74904 0.151245 -2.13692
LeftToes  1.06244e-005 4.65869e-005 -8.65518e-006
392
root  32.4766 38.5815 9.56741 -176.987 73.5689 -175.516
RightUpLeg  -12.2783 -29.8306 -10.2662
RightLeg  28.9746 -9.0519 -5.62519
RightFoot  -7.57125 -0.323465 8.2222
RightToes  0.000481921 0.542163 -0.142578
Spine  27.0249 -7.26324 -16.539
Spine1  -3.63676 -17.5843 39.733
HEad  13.3007 20.8262 -13.9864
LeftShoulder1  1.30622 -5.90321 -6.0697
LeftArm  -25.6822 -59.5765 -29.064
LeftForeArm  56.8187 -42.726 -7.34611
LeftHand  -0.25398 0.0180481 5.50724
RightShoulder  3.39414 7.43658 24.9108
RightArm  9.02679 2.15369 47.1073
RightForeArm  179.085 52.0749 167.752
RightHand  0.208123 -1.37061 6.03138
LeftUpLeg  -20.943 7.94876 4.35693
LeftLeg  29.8004 -1.60373 -0.647523
LeftFoot  -5.05351 0.161903 -2.39273
LeftToes  1.06244e-005 4.65869e-005 -8.65518e-006
393
root  32.6877 38.6683 9.59011 -179.871 71.7861 -178.433
RightUpLeg  -11.3137 -30.5403 -11.4765
RightLeg  29.0161 -9.86632 -6.10793
RightFoot  -7.4187 -0.31543 7.74295
RightToes  0.000481921 0.542163 -0.142578
Spine  25.1164 -6.22888 -14.8377
Spine1  -1.32906 -16.1678 36.5975
HEad  12.7124 16.63 -14.4553
LeftShoulder1  2.39237 -7.55312 -14.6435
LeftArm  -20.0648 -50.6174 -37.6852
LeftForeArm  62.3146 -70.5463 -27.3761
LeftHand  -0.25398 0.0180481 5.50724
RightShoulder  3.2583 6.75985 25.6486
RightArm  3.24933 -3.33864 45.4892
RightForeArm  -171.942 50.1994 169.13
RightHand  0.363473 -2.04548 14.0395
LeftUpLeg  -20.1882 5.77546 3.5758
LeftLeg  28.5803 -1.44019 -0.513441
LeftFoot  -4.52149 0.19718 -2.84743
LeftToes  1.06244e-005 4.65869e-005 -8.65518e-006
394
root  32.8387 38.9413 9.63305 178.539 69.5942 179.791
RightUpLeg  -9.65233 -31.7482 -12.3287
RightLeg  27.1155 -10.8292 -6.19669
RightFoot  -6.10066 -0.351168 6.7736
RightToes  0.000481921 0.542163 -0.142578
Spine  22.9829 -5.13327 -9.67714
Spine1  1.09677 -13.0871 29.0515
HEad  12.3629 9.3442 -11.8947
LeftShoulder1  3.72295 -9.67154 -21.9833
LeftArm  -8.81212 -40.0567 -46.1492
LeftForeArm  143.949 -81.2697 -111.169
LeftHand  -0.25398 0.0180481 5.50724
RightShoulder  3.58164 7.26502 27.2163
RightArm  -5.99365 -2.98737 43.4198
RightForeArm  -162.067 48.3364 170.536
RightHand  0.16725 -4.28858 24.6229
LeftUpLeg  -18.8165 3.93818 2.85791
LeftLeg  25.4333 -1.71122 -0.548563
LeftFoot  -2.92651 0.22292 -2.80632
LeftToes  1.06244e-005 4.65869e-005 -8.65518e-006
395
root  32.8228 39.2674 9.65143 177.795 68.1375 178.235
RightUpLeg  -8.81879 -32.8571 -12.7023
RightLeg  24.2691 -11.4471 -5.80947
RightFoot  -4.16811 -0.407914 6.03889
RightToes  0.000481921 0.542163 -0.142578
Spine  21.6567 -4.0331 -0.986903
Spine1  2.13009 -7.91022 16.324
HEad  11.3519 0.328791 -6.40932
LeftShoulder1  4.8677 -11.1858 -26.9648
LeftArm  1.80842 -28.2639 -50.8095
LeftForeArm  -176.179 -75.2224 -146.853
LeftHand  -0.25398 0.0180481 5.50724
RightShoulder  3.85902 8.1094 27.2313
RightArm  -17.0889 5.58481 39.8611
RightForeArm  -159.217 51.5008 170.329
RightHand  -0.497022 -7.20926 30.7798
LeftUpLeg  -17.7573 4.44598 1.85545
LeftLeg  21.3125 -3.1907 -1.02767
LeftFoot  -0.6153 0.215552 -2.26237
LeftToes  1.06244e-005 4.65869e-005 -8.65518e-006
396
root  32.5695 39.4845 9.65386 174.472 69.8223 173.631
RightUpLeg  -10.509 -30.8462 -13.0412
RightLeg  22.6128 -11.9359 -5.61685
RightFoot  -2.45705 -0.464639 5.75643
RightToes  0.000481921 0.542163 -0.142578
Spine  21.9648 -1.97107 9.47967
Spine1  2.05446 -0.380437 -0.317412
HEad  9.71606 -8.67206 -1.54527
LeftShoulder1  6.41008 -13.4572 -31.7663
LeftArm  7.53914 -18.0552 -48.2461
LeftForeArm  -173.862 -73.2809 -150.488
LeftHand  -0.25398 0.0180481 5.50724
RightShoulder  3.30368 7.81727 22.9333
RightArm  -29.7586 20.3038 35.029
RightForeArm  173.807 68.662 148.497
RightHand  -0.739121 -7.82372 21.3806
LeftUpLeg  -17.1147 8.57082 -0.056295
LeftLeg  17.5204 -5.19228 -1.57017
LeftFoot  1.56162 0.221368 -2.03115
LeftToes  1.06244e-005 4.65869e-005 -8.65518e-006
397
root  32.1574 39.511 9.72858 165.527 74.082 163.314
RightUpLeg  -14.5889 -25.3756 -13.6901
RightLeg  23.3469 -12.6874 -6.15066
RightFoot  -1.56539 -0.476267 5.4396
RightToes  0.000481921 0.542163 -0.142578
Spine  24.8035 0.440533 17.887
Spine1  1.29445 7.38003 -16.2741
HEad  9.02847 -14.1195 -0.286282
LeftShoulder1  7.50511 -15.6665 -33.129
LeftArm  8.66861 -11.6551 -45.9422
LeftForeArm  -178.067 -72.9897 -150.378
LeftHand  -0.25398 0.0180481 5.50724
RightShoulder  2.04597 5.90159 14.7139
RightArm  -44.3067 38.8212 26.8546
RightForeArm  51.4211 68.821 29.6053
RightHand  -0.104373 0.530473 -0.566299
LeftUpLeg  -17.0608 13.7887 -2.31575
LeftLeg  15.0804 -5.72568 -2.06466
LeftFoot  2.81991 0.303506 -2.58239
LeftToes  1.06244e-005 4.65869e-005 -8.65518e-006
398
root  31.8096 39.3741 9.9289 155.979 76.4192 152.473
RightUpLeg  -18.743 -21.4493 -14.3066
RightLeg  25.7288 -13.3 -7.10438
RightFoot  -1.69717 -0.417173 4.79709
RightToes  0.000481921 0.542163 -0.142578
Spine  27.9309 2.0522 21.088
Spine1  0.554692 11.9117 -24.387
HEad  9.2752 -14.6156 -2.71052
LeftShoulder1  7.52946 -16.3481 -31.8602
LeftArm  7.01329 -7.85766 -47.3172
LeftForeArm  -176.183 -71.8531 -152.47
LeftHand  -0.25398 0.0180481 5.50724
RightShoulder  0.768965 2.6461 4.55875
RightArm  -58.7933 53.8571 15.364
RightForeArm  25.9083 28.0669 2.35765
RightHand  -1.62213 8.87457 -14.6566
LeftUpLeg  -18.107 15.9481 -3.80899
LeftLeg  14.4479 -4.7924 -2.59664
LeftFoot  3.05982 0.390862 -3.24272
LeftToes  1.06244e-005 4.65869e-005 -8.65518e-006
399
root  31.7079 39.1786 10.1975 159.446 73.8197 154.74
RightUpLeg  -20.8923 -23.4959 -14.088
RightLeg  28.4486 -13.5399 -8.04833
RightFoot  -2.78894 -0.343132 4.33569
RightToes  0.000481921 0.542163 -0.142578
Spine  28.0677 2.11312 20.4486
Spine1  0.843068 11.8482 -23.8148
HEad  8.55506 -12.5384 -4.43361
LeftShoulder1  7.11947 -15.5511 -31.3158
LeftArm  5.50564 -5.7569 -48.9173
LeftForeArm  -170.111 -68.8654 -157.186
LeftHand  -0.25398 0.0180481 5.50724
RightShoulder  0.269802 0.211073 -0.585875
RightArm  -59.7408 56.7706 10.2887
RightForeArm  25.8429 23.0568 2.57669
RightHand  -1.7735 8.54541 -15.2087
LeftUpLeg  -20.4264 14.5988 -4.78565
LeftLeg  15.2689 -5.74608 -2.57479
LeftFoot  2.96226 0.382818 -3.19455
LeftToes  1.06244e-005 4.65869e-005 -8.65518e-006
400
root  31.8573 39.0451 10.476 168.887 67.663 163.949
RightUpLeg  -19.9177 -29.6884 -13.6215
RightLeg  30.355 -13.5986 -8.69055
RightFoot  -4.31491 -0.301591 4.43779
RightToes  0.000481921 0.542163 -0.142578
Spine  26.2712 0.91153 17.6694
Spine1  2.06337 8.72826 -18.4647
HEad  6.78527 -10.8057 -2.77488
LeftShoulder1  7.00941 -14.8553 -32.131
LeftArm  5.14488 -6.00131 -48.5238
LeftForeArm  -167.756 -65.6303 -160.71
LeftHand  -0.25398 0.0180481 5.50724
RightShoulder  0.678446 1.63032 4.69799
RightArm  -49.053 48.905 15.4532
RightForeArm  36.2049 53.389 16.5617
RightHand  -1.06892 5.02985 -11.8123
LeftUpLeg  -21.946 9.71754 -4.54474
LeftLeg  16.2367 -7.08229 -2.30932
LeftFoot  3.14102 0.324911 -2.70845
LeftToes  1.06244e-005 4.65869e-005 -8.65518e-006
